<svg width="16" height="16" viewBox="0 0 16 16" fill="none" xmlns="http://www.w3.org/2000/svg">
<path d="M12.4994 6.47306V6.00332C12.4994 3.42416 10.4849 1.33334 8 1.33334C5.51504 1.33334 3.50058 3.42416 3.50058 6.00332V6.47306C3.50058 7.03681 3.33981 7.58788 3.03853 8.05694L2.30024 9.20634C1.62588 10.2562 2.1407 11.6833 3.31357 12.0153C6.38183 12.8838 9.6182 12.8838 12.6864 12.0153C13.8593 11.6833 14.3741 10.2562 13.6997 9.20634L12.9615 8.05694C12.6602 7.58788 12.4994 7.03681 12.4994 6.47306Z" stroke="white" stroke-opacity="0.55" style="stroke:white;stroke-opacity:0.55;" stroke-width="1.5"/>
<path d="M5 12.6667C5.43669 13.8319 6.61497 14.6667 8 14.6667C9.385 14.6667 10.5633 13.8319 11 12.6667" stroke="white" stroke-opacity="0.55" style="stroke:white;stroke-opacity:0.55;" stroke-width="1.5" stroke-linecap="round"/>
</svg>
