<svg width="16" height="16" viewBox="0 0 16 16" fill="none" xmlns="http://www.w3.org/2000/svg">
<path d="M4.66667 10V6" stroke="white" stroke-opacity="0.55" style="stroke:white;stroke-opacity:0.55;" stroke-width="1.5" stroke-linecap="round" stroke-linejoin="round"/>
<path d="M13.8889 6H12.1539C10.9643 6 10 6.8954 10 8C10 9.1046 10.9643 10 12.1539 10H13.8889C13.9445 10 13.9722 10 13.9957 9.9986C14.3552 9.97667 14.6415 9.7108 14.6651 9.37693C14.6667 9.35513 14.6667 9.32933 14.6667 9.2778V6.7222C14.6667 6.67067 14.6667 6.64484 14.6651 6.62307C14.6415 6.28923 14.3552 6.02331 13.9957 6.00143C13.9722 6 13.9445 6 13.8889 6Z" stroke="white" stroke-opacity="0.55" style="stroke:white;stroke-opacity:0.55;" stroke-width="1.5"/>
<path d="M13.9767 6.00001C13.9249 4.75181 13.7577 3.9865 13.2189 3.44772C12.4379 2.66667 11.1808 2.66667 8.66667 2.66667H6.66667C4.15251 2.66667 2.89543 2.66667 2.11438 3.44772C1.33333 4.22877 1.33333 5.48585 1.33333 8.00001C1.33333 10.5141 1.33333 11.7713 2.11438 12.5523C2.89543 13.3333 4.15251 13.3333 6.66667 13.3333H8.66667C11.1808 13.3333 12.4379 13.3333 13.2189 12.5523C13.7577 12.0135 13.9249 11.2482 13.9767 10" stroke="white" stroke-opacity="0.55" style="stroke:white;stroke-opacity:0.55;" stroke-width="1.5"/>
<path d="M11.9941 8H12.0001" stroke="white" stroke-opacity="0.55" style="stroke:white;stroke-opacity:0.55;" stroke-width="2" stroke-linecap="round" stroke-linejoin="round"/>
</svg>
