<svg width="16" height="16" viewBox="0 0 16 16" fill="none" xmlns="http://www.w3.org/2000/svg">
<path d="M13.0411 4.66667C13.1936 3.79682 12.5242 3 11.6411 3H4.35859C3.47549 3 2.80615 3.79682 2.95856 4.66667" stroke="white" style="stroke:white;stroke-opacity:1;" stroke-width="1.5"/>
<path d="M11.6666 3.00001C11.6855 2.82729 11.695 2.74091 11.6951 2.66958C11.6967 1.98716 11.1826 1.41377 10.5041 1.34096C10.4331 1.33334 10.3463 1.33334 10.1725 1.33334H5.82733C5.65357 1.33334 5.56668 1.33334 5.49575 1.34096C4.81723 1.41377 4.30321 1.98716 4.30469 2.66957C4.30485 2.74091 4.31431 2.82728 4.33322 3.00001" stroke="white" style="stroke:white;stroke-opacity:1;" stroke-width="1.5"/>
<path d="M10 12H6" stroke="white" style="stroke:white;stroke-opacity:1;" stroke-width="1.5" stroke-linecap="round"/>
<path d="M1.58901 9.19532C1.29165 7.08626 1.14298 6.03176 1.77488 5.34921C2.40678 4.66666 3.53172 4.66666 5.78159 4.66666H10.2184C12.4683 4.66666 13.5932 4.66666 14.2251 5.34921C14.857 6.03176 14.7083 7.08626 14.411 9.19532L14.129 11.1953C13.8958 12.8493 13.7793 13.6762 13.1811 14.1715C12.583 14.6667 11.7008 14.6667 9.9364 14.6667H6.06357C4.29921 14.6667 3.41702 14.6667 2.81889 14.1715C2.22077 13.6762 2.10417 12.8493 1.87099 11.1953L1.58901 9.19532Z" stroke="white" style="stroke:white;stroke-opacity:1;" stroke-width="1.5"/>
</svg>
