<svg width="16" height="16" viewBox="0 0 16 16" fill="none" xmlns="http://www.w3.org/2000/svg">
<path d="M10.4538 9.7246C12.7805 9.7246 14.6667 7.84613 14.6667 5.52896C14.6667 3.21178 12.7805 1.33333 10.4538 1.33333C8.12713 1.33333 6.241 3.21178 6.241 5.52896C6.241 6.60225 6.73087 7.38287 6.73087 7.38287L1.63627 12.4566C1.40767 12.6843 1.08762 13.2762 1.63627 13.8226L2.22411 14.4081C2.4527 14.6032 3.02746 14.8764 3.49773 14.4081L4.18354 13.7251C4.86935 14.4081 5.65313 14.0178 5.94705 13.6275C6.43692 12.9445 5.84908 12.2615 5.84908 12.2615L6.04503 12.0663C6.98553 13.003 7.80853 12.4566 8.10247 12.0663C8.59233 11.3833 8.10247 10.7003 8.10247 10.7003C7.90653 10.31 7.51467 10.31 8.00447 9.8222L8.59233 9.23673C9.0626 9.627 10.0293 9.7246 10.4538 9.7246Z" stroke="white" stroke-opacity="0.55" style="stroke:white;stroke-opacity:0.55;" stroke-width="1.5" stroke-linejoin="round"/>
<path d="M11.9235 5.52902C11.9235 6.33734 11.2656 6.9926 10.454 6.9926C9.64233 6.9926 8.9844 6.33734 8.9844 5.52902C8.9844 4.7207 9.64233 4.06543 10.454 4.06543C11.2656 4.06543 11.9235 4.7207 11.9235 5.52902Z" stroke="white" stroke-opacity="0.55" style="stroke:white;stroke-opacity:0.55;" stroke-width="1.5"/>
</svg>
